<?xml version="1.0" standalone="no"?>
<!DOCTYPE svg PUBLIC "-//W3C//DTD SVG 20010904//EN"
 "http://www.w3.org/TR/2001/REC-SVG-20010904/DTD/svg10.dtd">
<svg version="1.0" xmlns="http://www.w3.org/2000/svg"
 width="304.000000pt" height="304.000000pt" viewBox="0 0 304.000000 304.000000"
 preserveAspectRatio="xMidYMid meet">
<metadata>
Created by potrace 1.11, written by Peter Selinger 2001-2013
</metadata>
<g transform="translate(0.000000,304.000000) scale(0.100000,-0.100000)"
fill="#000000" stroke="none">
<path d="M467 2381 c3 -439 2 -661 -5 -665 -6 -3 -8 -15 -5 -26 10 -38 -16
-79 -58 -90 -47 -13 -52 -25 -6 -16 l33 6 -4 -63 c-3 -43 1 -75 12 -102 13
-31 14 -45 5 -72 -6 -18 -16 -33 -22 -33 -8 0 -7 4 1 12 19 19 14 30 -7 18
-11 -5 -22 -19 -26 -30 -8 -24 -87 -50 -159 -51 -45 0 -48 -2 -26 -10 32 -14
130 -3 199 22 30 10 57 17 59 14 3 -2 -3 -21 -13 -41 -35 -75 -37 -111 -9
-248 l6 -28 17 38 c53 118 121 61 106 -89 -7 -78 -18 -93 -74 -104 -14 -2 -44
-8 -66 -13 l-40 -8 47 -1 c26 -1 50 -6 54 -12 3 -6 9 -7 13 -2 3 4 20 14 36
22 17 7 27 9 23 5 -4 -4 -4 -12 1 -18 9 -10 -14 -54 -24 -48 -16 8 -27 -1 -22
-19 4 -14 -3 -31 -21 -51 -41 -47 -51 -56 -64 -61 -7 -2 -10 -8 -6 -12 4 -4
14 -2 23 5 8 7 15 10 15 7 0 -4 21 16 47 44 25 27 48 48 50 46 1 -2 -4 -17
-12 -33 -12 -26 -21 -57 -24 -87 -1 -11 -94 -107 -104 -107 -4 0 -1 10 7 22 9
12 16 29 16 38 0 8 -9 0 -20 -18 -12 -20 -25 -30 -32 -26 -7 4 -8 3 -4 -5 4
-6 -8 -32 -28 -60 -20 -26 -33 -51 -30 -54 3 -3 -1 -16 -10 -29 -28 -40 -21
-64 25 -82 23 -9 43 -15 46 -12 2 2 -12 9 -31 16 -20 6 -36 18 -36 27 0 21 40
74 51 68 5 -4 9 -1 9 4 0 6 5 11 12 11 42 0 216 89 276 141 18 16 37 27 42 24
5 -3 17 9 26 27 22 42 30 21 10 -26 -8 -20 -11 -36 -6 -36 4 0 16 24 26 52 19
59 42 96 91 148 18 19 33 38 33 42 0 4 5 8 10 8 6 0 10 -6 10 -13 0 -7 10 -18
21 -25 21 -13 21 -13 5 9 -26 38 -20 48 24 44 38 -3 40 -2 34 20 -9 36 3 60
39 77 31 15 33 18 31 67 0 28 2 54 6 56 4 3 22 -28 41 -68 25 -55 33 -85 32
-130 0 -32 -5 -63 -11 -69 -21 -21 -13 -32 8 -13 35 31 27 114 -20 220 -30 67
-34 125 -9 125 6 0 6 8 0 19 -9 15 -7 18 7 17 9 0 16 5 14 11 -1 7 2 13 8 13
14 0 13 33 -1 47 -9 9 -6 22 9 52 12 23 19 41 15 41 -12 0 61 69 73 70 16 0
47 68 40 86 -3 8 -1 14 5 14 6 0 7 5 4 11 -4 5 1 25 9 44 19 40 21 63 13 161
-5 70 -6 72 -59 125 -81 80 -153 168 -180 219 -34 66 -38 212 -8 292 11 31 28
62 37 70 9 7 50 15 92 18 l76 5 -42 23 c-24 12 -63 25 -88 29 -42 5 -46 8 -43
31 4 31 43 45 106 36 26 -4 42 -2 42 4 0 10 -34 23 -91 36 l-26 6 14 47 c8 27
19 65 26 87 15 51 59 112 95 130 48 25 114 22 200 -9 58 -21 65 -34 66 -115 1
-35 7 -51 29 -74 21 -21 25 -31 16 -37 -7 -4 -16 -6 -20 -4 -10 7 -112 -30
-116 -42 -7 -20 29 -23 90 -7 86 22 140 2 82 -30 -11 -6 -24 -17 -30 -24 -5
-7 -32 -13 -58 -14 -39 -2 -51 -7 -64 -28 l-16 -25 28 25 29 25 -21 -30 -21
-30 77 3 c97 5 111 -6 111 -84 0 -30 -4 -63 -10 -74 -5 -11 -14 -29 -20 -40
-5 -11 -10 -28 -10 -37 0 -15 -2 -15 -9 -4 -8 12 -16 8 -46 -18 -37 -32 -37
-32 -8 -26 28 7 27 6 -6 -16 -39 -26 -101 -38 -241 -45 -52 -3 -99 -9 -103
-13 -4 -4 8 -25 28 -46 19 -22 35 -42 35 -46 0 -10 49 -40 81 -49 17 -5 29 -5
29 1 0 5 -6 9 -12 9 -21 1 -52 33 -76 78 -12 23 -22 44 -22 45 0 1 48 1 108 1
63 -1 112 3 120 9 10 8 16 7 22 -2 4 -8 13 -10 19 -7 18 11 13 -20 -6 -36 -10
-9 -38 -22 -62 -29 -24 -7 -39 -15 -32 -17 17 -6 13 -30 -6 -41 -33 -18 -5
-23 50 -9 45 12 54 12 50 1 -9 -23 22 -14 49 15 14 15 35 43 47 62 l21 35 0
-30 c0 -16 4 -36 9 -43 14 -23 0 -58 -45 -108 -24 -27 -44 -52 -44 -56 0 -4
-24 -21 -52 -38 -29 -16 -46 -30 -38 -31 11 0 10 -2 -3 -7 -13 -6 -7 -11 28
-21 37 -11 45 -18 45 -36 0 -13 -11 -36 -23 -52 -25 -29 -100 -166 -87 -158 4
2 12 -13 18 -34 7 -21 26 -56 43 -77 29 -36 31 -43 26 -100 -5 -67 -18 -91
-117 -214 -67 -83 -90 -132 -90 -196 l0 -51 -32 3 -33 3 31 -10 c27 -10 33
-18 38 -52 4 -23 15 -50 24 -61 17 -18 16 -19 -40 -13 -32 3 -58 2 -58 -3 0
-5 24 -10 52 -12 69 -4 72 -20 19 -92 -23 -31 -35 -53 -27 -50 8 3 27 24 42
47 24 37 28 39 35 22 10 -27 11 -175 1 -175 -5 0 -8 -31 -8 -69 0 -39 3 -68 7
-66 17 11 40 -56 66 -197 3 -16 9 -28 14 -28 11 0 11 14 -2 69 -5 24 -8 46 -5
48 3 3 10 -22 17 -56 13 -66 36 -87 25 -23 -3 20 -9 55 -13 77 l-6 39 60 -49
c38 -31 63 -60 66 -77 5 -22 11 -26 42 -25 21 1 35 6 35 14 0 7 4 13 10 13 5
0 7 -7 4 -15 -4 -8 -2 -15 4 -15 5 0 13 12 16 26 4 15 10 23 13 20 4 -4 12 6
18 21 7 17 8 30 2 34 -12 8 21 72 33 64 5 -3 12 7 16 22 7 30 84 192 94 198
11 7 68 -57 79 -87 7 -19 7 -37 1 -54 -6 -14 -8 -30 -5 -35 7 -10 -24 -73 -32
-66 -3 3 2 16 11 29 9 12 16 27 16 32 0 11 -48 -59 -93 -136 -15 -26 -27 -51
-27 -57 0 -22 21 -10 38 20 22 41 61 87 62 73 0 -6 -9 -23 -21 -38 -11 -14
-17 -26 -14 -26 4 0 2 -7 -5 -15 -11 -13 -10 -14 4 -9 9 3 16 1 16 -5 0 -15
63 -14 79 2 11 10 13 10 7 0 -12 -22 52 -15 74 7 11 11 15 20 10 20 -7 0 -7 6
-1 18 5 9 12 52 16 95 7 73 9 79 41 104 19 14 34 30 34 36 0 5 -8 3 -18 -6
-10 -10 -22 -14 -27 -10 -4 5 -5 2 -1 -4 14 -25 -12 -13 -29 13 -14 21 -16 38
-10 78 4 28 10 83 13 121 5 52 11 69 21 67 9 -2 11 3 7 13 -8 22 4 42 14 24 5
-7 6 -27 3 -44 -3 -18 -1 -35 5 -38 15 -10 2 -59 -15 -53 -18 7 -29 -22 -14
-37 8 -8 11 -7 11 6 0 9 5 17 10 17 6 0 10 -5 10 -10 0 -7 6 -7 19 0 28 15 51
12 51 -6 0 -8 4 -13 9 -10 5 3 11 -3 14 -14 7 -26 37 -16 37 13 0 38 7 13 14
-48 4 -41 3 -55 -4 -45 -8 12 -10 9 -10 -13 0 -42 -24 -91 -56 -115 -16 -12
-34 -26 -40 -31 -7 -6 -17 -2 -27 10 -9 10 -22 19 -28 19 -8 0 -6 -7 4 -18 10
-10 17 -24 17 -31 0 -7 4 -10 9 -7 12 8 41 -3 41 -15 0 -5 -7 -9 -16 -9 -9 0
-14 -6 -11 -12 2 -7 -4 -33 -15 -58 -13 -33 -14 -40 -3 -25 9 11 21 27 28 36
6 8 13 22 15 30 7 35 25 56 43 52 11 -3 26 0 34 7 12 10 16 9 21 -3 7 -20 -20
-71 -48 -92 -22 -17 -22 -17 25 -12 43 4 47 3 47 -17 0 -17 2 -18 10 -6 6 10
10 11 10 3 0 -7 5 -13 11 -13 6 0 8 8 5 18 -5 14 -3 13 10 -3 12 -14 18 -16
21 -7 4 10 8 10 21 0 15 -12 16 -11 3 4 -7 10 -17 15 -22 12 -5 -3 -9 -1 -9 4
0 11 24 22 47 22 11 0 14 -7 11 -25 -5 -21 -2 -25 20 -25 14 0 31 8 38 18 13
16 13 16 15 -3 1 -11 5 9 10 45 17 147 21 247 12 280 -5 19 -6 50 -2 68 3 18
3 35 -2 38 -5 3 -7 10 -3 15 3 5 0 17 -7 25 -7 8 -14 32 -16 52 -12 121 -14
194 -5 205 5 6 8 38 6 69 l-2 57 33 7 c18 3 46 20 62 36 27 29 27 30 3 15 -33
-20 -86 -26 -82 -9 1 7 -10 17 -25 23 -16 5 -39 22 -52 37 -13 15 -38 41 -54
59 -19 20 -31 45 -34 70 -2 21 -8 63 -14 93 -6 30 -12 66 -14 80 -2 14 -6 41
-10 60 -6 33 -4 38 45 79 45 38 82 93 84 126 1 5 16 14 34 19 64 18 202 -49
202 -98 0 -8 4 -17 9 -20 5 -3 12 -23 16 -43 5 -21 9 -42 11 -48 2 -5 5 -20 8
-33 3 -12 8 -27 12 -33 10 -18 12 -90 2 -164 -5 -38 -11 -88 -14 -110 -3 -21
-8 -44 -12 -49 -8 -13 -9 -25 -18 -162 -6 -91 -4 -125 11 -185 10 -41 21 -76
24 -79 8 -7 71 -110 71 -117 0 -3 13 -17 28 -31 16 -15 32 -34 35 -42 5 -11 8
-12 13 -2 3 6 12 12 20 12 9 0 12 -4 9 -10 -3 -5 4 -10 17 -11 23 -1 23 -1 -2
-9 l-25 -8 28 -1 c16 -1 30 5 33 14 4 11 21 15 55 15 l49 0 0 683 0 683 -47
12 c-27 7 -94 27 -151 44 -140 43 -183 82 -246 225 -72 163 -75 197 -69 651
l6 392 -1036 0 -1035 0 5 -659z m1213 -97 c-14 -36 -21 -26 -13 20 4 28 8 34
15 23 4 -9 4 -27 -2 -43z m-1115 -454 c3 -5 1 -10 -4 -10 -6 0 -11 5 -11 10 0
6 2 10 4 10 3 0 8 -4 11 -10z m1790 -244 c16 -12 17 -16 6 -30 -7 -9 -10 -24
-7 -33 6 -15 8 -15 16 -3 7 11 10 9 10 -12 0 -35 -36 -76 -77 -87 -30 -9 -34
-7 -39 14 -3 13 2 48 12 77 12 37 14 53 5 56 -6 2 -11 10 -11 18 0 19 60 19
85 0z m-797 -38 c7 -7 12 -20 12 -31 0 -10 4 -16 9 -13 4 3 7 -6 5 -21 -1 -14
-8 -29 -14 -33 -7 -4 -10 -16 -9 -26 3 -20 -35 -114 -47 -114 -12 0 -54 54
-60 78 -10 36 3 91 31 133 26 40 51 49 73 27z m-1092 -360 c-2 -35 -10 -76
-17 -93 -14 -29 -14 -29 -17 32 -2 42 2 72 13 93 8 16 17 30 20 30 2 0 3 -28
1 -62z m418 -392 c-8 -20 -31 -27 -31 -10 0 7 4 11 9 8 4 -3 8 0 8 5 0 6 4 11
10 11 5 0 7 -6 4 -14z m1118 -109 c25 -52 31 -96 18 -128 -7 -16 -19 -29 -26
-29 -16 0 -19 -16 -4 -25 6 -3 10 -11 10 -18 0 -23 -20 10 -45 72 -24 63 -25
101 -3 148 13 27 31 21 50 -20z m-1393 -34 c-14 -72 -18 -80 -41 -87 -31 -8
-32 -3 -12 49 10 27 20 41 24 35 5 -7 12 0 18 19 16 45 21 38 11 -16z m1522
-16 c-13 -13 -26 -3 -16 12 3 6 11 8 17 5 6 -4 6 -10 -1 -17z m49 -37 c0 -5
-2 -10 -4 -10 -3 0 -8 5 -11 10 -3 6 -1 10 4 10 6 0 11 -4 11 -10z m-798 -55
c3 -14 1 -28 -3 -31 -5 -3 -9 9 -9 25 0 38 6 40 12 6z m864 -12 c-4 -4 -11 -1
-16 7 -16 25 -11 35 7 17 9 -9 13 -20 9 -24z m-1681 7 c-3 -5 -10 -10 -16 -10
-5 0 -9 5 -9 10 0 6 7 10 16 10 8 0 12 -4 9 -10z m-49 -15 c-4 -10 1 -15 16
-15 21 0 21 0 -2 -20 -44 -38 -77 -16 -38 25 27 29 32 31 24 10z m1275 -67
c16 -48 16 -54 2 -70 -9 -10 -19 -18 -23 -18 -10 0 -30 113 -23 138 8 31 21
16 44 -50z m486 20 c-3 -7 -5 -2 -5 12 0 14 2 19 5 13 2 -7 2 -19 0 -25z
m-890 -10 c-3 -8 -6 -5 -6 6 -1 11 2 17 5 13 3 -3 4 -12 1 -19z m-989 -18 c-7
-10 -14 -17 -17 -15 -4 4 18 35 25 35 2 0 -1 -9 -8 -20z m82 6 c0 -2 -16 -13
-35 -25 -40 -23 -45 -21 -13 9 19 17 48 27 48 16z m1810 -12 c0 -8 -5 -12 -10
-9 -6 4 -8 11 -5 16 9 14 15 11 15 -7z m-1920 -27 c0 -2 -10 -12 -22 -23 l-23
-19 19 23 c18 21 26 27 26 19z m1039 -167 c-1 -42 -3 -49 -9 -30 -12 38 -12
119 0 100 5 -8 9 -40 9 -70z m219 53 c6 -10 13 -38 17 -63 6 -43 6 -44 -9 -23
-14 19 -31 103 -20 103 2 0 7 -8 12 -17z m658 -40 c-11 -11 -17 4 -9 23 7 18
8 18 11 1 2 -10 1 -21 -2 -24z m-919 5 c-3 -8 -6 -5 -6 6 -1 11 2 17 5 13 3
-3 4 -12 1 -19z m141 -110 c35 -37 61 -51 46 -25 -5 7 2 6 16 -4 28 -19 33
-29 21 -48 -7 -11 -17 -7 -51 20 -90 73 -98 82 -104 129 l-6 45 21 -40 c12
-22 37 -57 57 -77z m19 51 c12 -21 18 -39 13 -39 -9 0 -70 80 -70 92 0 18 37
-16 57 -53z m983 51 c0 -5 -5 -10 -11 -10 -5 0 -7 5 -4 10 3 6 8 10 11 10 2 0
4 -4 4 -10z m-21 -84 c-9 -8 -10 -7 -5 7 3 10 7 24 7 30 1 7 3 4 6 -7 3 -10
-1 -23 -8 -30z m-1072 -18 c-3 -7 -5 -2 -5 12 0 14 2 19 5 13 2 -7 2 -19 0
-25z m443 -88 c-6 -11 -13 -20 -16 -20 -2 0 0 9 6 20 6 11 13 20 16 20 2 0 0
-9 -6 -20z m613 -25 c-3 -9 -8 -14 -10 -11 -3 3 -2 9 2 15 9 16 15 13 8 -4z"/>
<path d="M2312 1578 c-7 -7 -12 -16 -12 -20 0 -15 15 -8 28 12 13 22 3 27 -16
8z"/>
<path d="M1404 2404 c3 -9 6 -21 6 -27 0 -8 3 -8 11 0 13 13 5 43 -12 43 -6 0
-8 -7 -5 -16z"/>
<path d="M1390 2365 c0 -14 4 -25 9 -25 4 0 6 11 3 25 -2 14 -6 25 -8 25 -2 0
-4 -11 -4 -25z"/>
<path d="M1390 2234 c0 -11 5 -14 16 -10 23 9 44 -12 44 -44 0 -25 -3 -27 -42
-26 -32 1 -43 -3 -46 -16 -3 -14 5 -16 59 -15 49 2 63 5 64 18 2 9 6 25 9 36
8 25 -28 58 -71 66 -26 5 -33 3 -33 -9z"/>
<path d="M1141 2054 c0 -11 3 -14 6 -6 3 7 2 16 -1 19 -3 4 -6 -2 -5 -13z"/>
<path d="M1294 1951 c3 -5 17 -8 31 -8 13 0 22 3 19 8 -3 5 -16 9 -30 9 -14 0
-23 -4 -20 -9z"/>
<path d="M300 1580 c0 -5 5 -10 10 -10 6 0 10 5 10 10 0 6 -4 10 -10 10 -5 0
-10 -4 -10 -10z"/>
<path d="M785 569 c-9 -14 -2 -20 14 -10 8 6 9 11 3 15 -6 3 -14 1 -17 -5z"/>
<path d="M680 484 c-16 -8 -19 -14 -9 -14 8 0 24 7 35 15 24 18 7 18 -26 -1z"/>
<path d="M2120 400 c0 -5 5 -10 11 -10 5 0 7 5 4 10 -3 6 -8 10 -11 10 -2 0
-4 -4 -4 -10z"/>
<path d="M237 278 c-15 -11 -25 -24 -21 -29 3 -5 -5 -13 -18 -19 -13 -5 -41
-28 -63 -50 l-40 -41 36 -67 c29 -56 40 -68 63 -70 16 -2 33 2 37 10 7 10 9
10 9 1 0 -9 16 -13 44 -13 39 0 44 2 39 20 -4 16 0 20 18 21 13 1 27 1 32 0 4
0 7 4 7 10 0 15 -62 154 -92 206 l-23 41 -28 -20z m-82 -128 c3 -5 1 -10 -4
-10 -6 0 -11 5 -11 10 0 6 2 10 4 10 3 0 8 -4 11 -10z m19 -57 c-10 -7 -25
-13 -33 -13 -14 1 -13 3 2 14 9 7 17 19 17 26 0 10 3 10 16 -1 14 -12 14 -14
-2 -26z m176 7 c0 -5 -5 -10 -11 -10 -5 0 -7 5 -4 10 3 6 8 10 11 10 2 0 4 -4
4 -10z m-33 -32 c-3 -8 -6 -5 -6 6 -1 11 2 17 5 13 3 -3 4 -12 1 -19z m-119
-32 c-12 -7 -25 -11 -28 -9 -8 8 32 33 42 27 6 -4 -1 -12 -14 -18z"/>
<path d="M2758 246 c-10 -7 -18 -19 -18 -26 0 -6 -9 -24 -20 -40 -36 -50 -65
-151 -40 -135 6 3 10 -5 10 -19 l0 -26 175 0 175 0 0 60 0 59 -39 11 c-22 6
-50 23 -64 39 -13 16 -38 32 -55 35 -17 4 -36 14 -43 22 -6 8 -20 14 -30 14
-11 0 -19 5 -19 10 0 13 -11 12 -32 -4z"/>
<path d="M1109 169 c-14 -8 -5 -13 16 -9 6 1 7 -1 3 -5 -4 -4 5 -18 20 -31 15
-14 20 -23 12 -22 -8 2 -21 10 -28 18 -8 8 -11 9 -7 3 3 -7 1 -13 -5 -13 -6 0
-8 -5 -4 -12 4 -7 3 -8 -5 -4 -6 4 -9 11 -6 16 3 5 -5 14 -17 21 -22 12 -22
11 -8 -6 14 -17 13 -18 -5 -11 -11 5 -28 11 -37 13 -10 3 -18 10 -18 15 0 5
-10 8 -22 7 -13 -2 -33 3 -45 9 -19 10 -23 10 -23 -1 0 -7 5 -18 12 -25 9 -9
5 -12 -20 -12 -18 0 -32 -5 -32 -11 0 -5 5 -7 10 -4 6 3 10 1 10 -4 0 -6 13
-11 29 -11 34 0 48 -15 53 -55 l3 -30 194 -1 193 -2 -27 22 -28 22 32 13 c32
14 39 25 21 36 -5 3 -10 0 -10 -7 0 -11 -2 -11 -9 0 -4 7 -14 12 -22 10 -8 -2
-13 3 -11 10 1 6 -3 12 -8 12 -5 0 -10 -6 -10 -12 -1 -7 -9 3 -20 22 -11 19
-19 28 -20 20 0 -10 -3 -11 -8 -4 -4 6 -24 11 -45 9 -23 -1 -41 3 -44 10 -5
14 -45 16 -64 4z m-74 -55 c22 -14 36 -24 30 -22 -50 17 -85 33 -85 40 0 13
13 9 55 -18z m153 -44 c22 -7 23 -8 6 -9 -11 -1 -29 6 -40 15 -10 8 -13 12 -6
9 8 -4 26 -11 40 -15z"/>
<path d="M1092 144 c10 -10 20 -15 24 -12 3 4 -5 12 -18 18 -22 12 -22 12 -6
-6z"/>
<path d="M780 75 c0 -19 34 -75 45 -75 11 0 11 6 -1 29 -14 29 -44 60 -44 46z"/>
<path d="M117 33 c-14 -13 -6 -33 13 -33 22 0 23 1 14 24 -7 17 -16 20 -27 9z"/>
<path d="M364 15 c-17 -13 -18 -14 -1 -15 9 0 17 6 17 13 0 8 4 7 10 -3 6 -9
10 -10 10 -3 0 20 -16 23 -36 8z"/>
</g>
</svg>
